<?xml version="1.0" encoding="utf-8"?>
<!-- Generator: Adobe Illustrator 24.0.1, SVG Export Plug-In . SVG Version: 6.00 Build 0)  -->
<svg version="1.1" id="Capa_1" xmlns="http://www.w3.org/2000/svg" xmlns:xlink="http://www.w3.org/1999/xlink" x="0px" y="0px"
	 viewBox="0 0 259 250" style="enable-background:new 0 0 259 250;" xml:space="preserve" height="250px">
<g>
	<path d="M8.7,156.5h28.8c-3.3,2.5-5.4,6.5-5.4,10.9v6c0,2,1.6,3.7,3.7,3.7h171.1c1.2,0,2.3-0.6,3-1.6c0.7-1,0.8-2.2,0.4-3.4
		l-1.8-4.9h15.8c1.3,0,2.4-0.6,3.1-1.7s0.8-2.4,0.2-3.5c-0.1-0.3-1.1-2.3-2.7-5.5h26.5c2,0,3.7-1.6,3.7-3.7c0-2-1.6-3.7-3.7-3.7
		h-30.2c-5.7-10.7-14.4-25.9-23.5-37.6c-1.3-1.6-3.6-1.9-5.1-0.6c-1.6,1.2-1.9,3.6-0.6,5.1c11.1,14.1,21.8,34.4,26.6,43.8h-12.6
		l-0.4-1.2c-2-5.4-7.1-8.9-12.8-8.9h-2.8c-1.1,0-2-0.6-2.5-1.5l-1.3-2.6l-7.3-26.1c-0.7-2.4-3-4.1-5.7-4.1c-2.7,0-5,1.6-5.7,4.1
		l-4.9,17.4h-1.2c-3.1-6.1-6.8-12.4-10.8-18.6c8.9-10.6,17.5-16.8,23.2-16.8c1.8,0,4.2,1,6.9,3c1.6,1.2,3.9,0.9,5.1-0.8
		c1.2-1.6,0.9-3.9-0.8-5.1c-4-3-7.8-4.5-11.2-4.5c-5.6,0-14.7,3.2-27.4,17.8c-5.4-7.9-11.1-15.5-16.6-21.8c-1.3-1.5-3.6-1.7-5.2-0.4
		c-1.5,1.3-1.7,3.6-0.4,5.2c10.2,11.7,20.9,27.4,28.8,42h-19.1l-5.2-18.6c-0.7-2.4-3-4.1-5.7-4.1s-5,1.6-5.7,4.1l-5.2,18.6h-10.6
		c0.8-1.8,1.7-3.7,2.4-5.6c1.5-3.7,2.7-7.6,1.7-11.7c-1.3-5.2-5.4-7.9-7.1-11.1c-3.1-5.6,3.2-11.5,6.6-16.5c2.7-4,4.1-7.9,4-11.4
		c0.8,0.5,1.8,1.2,3,2.1c1.6,1.3,3.9,1,5.1-0.6c1.3-1.6,1-3.9-0.6-5.1c-4.7-3.7-8.5-5.5-11.8-5.5c-3.8,0-8.3,2.4-13.5,7.2
		c-2.7-4.4-7.5-7.3-12.8-7.3c0,0-0.1,0-0.1,0c-5.9,0-11.1,3.3-13.7,8.4c-1.5-0.3-3-0.5-4.5-0.5c-9.6,0-17.6,6.9-19.4,16H26.9
		c-2,0-3.7,1.6-3.7,3.7s1.6,3.7,3.7,3.7h45.2c-9,13.4-18.5,30.1-26.4,46.4h-37c-2,0-3.7,1.6-3.7,3.7S6.6,156.5,8.7,156.5L8.7,156.5z
		 M173,126.5l6,21.4h-12C168.3,143.2,171.6,131.3,173,126.5L173,126.5z M123,125.3l6,21.4h-12C118.2,142.6,121.9,129.2,123,125.3z
		 M48.5,95.5c1.6-5,6.3-8.7,11.8-8.7c1.8,0,3.6,0.4,5.2,1.1c1,0.5,2.2,0.5,3.2-0.1c1-0.5,1.7-1.4,1.9-2.5c0.7-3.7,4-6.4,7.8-6.4h0
		c3.4,0,6.4,2.3,7.5,5.6c-2.8,3.1-5.7,6.8-8.8,11H48.5z M80.1,104.1c9.9-14.3,17.2-21.4,21.6-24c0.5,2.6-1,5.7-2.6,8
		c-1.9,2.8-4.2,5.3-6.1,8.5c-3.1,5.4-3.4,11-0.9,15.6c2.1,3.9,5.7,6.3,6.4,9.3c0.5,2.1-0.4,4.8-1.4,7.2c-1.1,2.8-2.4,5.6-3.8,8.3
		H79.9c-5.3,0-10.2,2.9-12.6,7.7l-2.4,4.6c-0.4,0.8-1.2,1.3-2,1.5l-10.6,1.7C60.5,135.4,70.6,117.7,80.1,104.1L80.1,104.1z
		 M39.4,167.4c0-3.1,2.2-5.7,5.3-6.2L64,158c3.1-0.5,5.9-2.5,7.4-5.3l2.4-4.6c1.2-2.3,3.5-3.7,6.1-3.7h30.2l-0.6,2
		c-0.5,1.7-0.1,3.6,1,5c1.2,1.6,3.3,2.6,5.5,2.6h3.4v4.5c0,2,1.6,3.7,3.7,3.7c2,0,3.7-1.6,3.7-3.7V154h3.4c2.2,0,4.2-1,5.5-2.6
		c1.1-1.5,1.5-3.3,1-5l-0.6-2h24.4l-0.9,3.3c-0.5,1.7-0.1,3.6,1,5c1.2,1.6,3.3,2.6,5.5,2.6h3.4v4.5c0,2,1.6,3.7,3.7,3.7
		s3.7-1.6,3.7-3.7v-4.5h3.4c1.1,0,2.1-0.2,3-0.7c1.8,1.6,4.2,2.6,6.7,2.6h2.8c2.6,0,5,1.7,5.9,4.1l3.1,8.5H39.4L39.4,167.4z"/>
	<path d="M251.3,211.3H8.7c-2,0-3.7,1.6-3.7,3.7s1.6,3.7,3.7,3.7h242.7c2,0,3.7-1.6,3.7-3.7S253.4,211.3,251.3,211.3z"/>
	<path d="M167.5,62.6h54c7.1,0,12.9-5.8,12.9-12.9V47c0-8.5-6.8-15.5-15.2-15.6c0,0-0.1,0-0.1,0c-5.9,0-11.1,3.3-13.6,8.4
		c-1.5-0.3-3-0.5-4.5-0.5c-9.6,0-17.6,6.9-19.4,16h-14.1c-2,0-3.7,1.6-3.7,3.7C163.8,61,165.5,62.6,167.5,62.6L167.5,62.6z
		 M201,46.6c1.8,0,3.6,0.4,5.2,1.1c1,0.5,2.2,0.5,3.2-0.1c1-0.5,1.7-1.4,1.9-2.5c0.7-3.7,4-6.4,7.8-6.4h0.1c4.4,0,7.9,3.7,7.9,8.2
		v2.7c0,3.1-2.5,5.6-5.6,5.6h-32.3C190.7,50.3,195.4,46.6,201,46.6z"/>
	<path d="M185.6,188.6c-2,0-3.7,1.6-3.7,3.7s1.6,3.7,3.7,3.7h14.6c2,0,3.7-1.6,3.7-3.7s-1.6-3.7-3.7-3.7H185.6z"/>
	<path d="M36.3,188.6c-2,0-3.7,1.6-3.7,3.7s1.6,3.7,3.7,3.7h9.8c2,0,3.7-1.6,3.7-3.7s-1.6-3.7-3.7-3.7H36.3z"/>
	<path d="M105.7,195.3c-2,0-3.7,1.6-3.7,3.7s1.6,3.7,3.7,3.7h7.3c2,0,3.7-1.6,3.7-3.7s-1.6-3.7-3.7-3.7H105.7z"/>
</g>
</svg>
