<svg id="Capa_1" enable-background="new 0 0 512 512" height="512" viewBox="0 0 512 512" width="512" xmlns="http://www.w3.org/2000/svg"><g><path d="m7.5 320.566h58.972c-6.791 5.129-11.062 13.251-11.062 22.31v12.25c0 4.142 3.357 7.5 7.5 7.5h350.51c2.451 0 4.747-1.198 6.15-3.208 1.402-2.01 1.734-4.578.89-6.878l-3.657-9.954h32.287c2.57 0 4.961-1.316 6.336-3.487s1.543-4.896.444-7.219c-.299-.632-2.279-4.799-5.561-11.313h54.19c4.143 0 7.5-3.358 7.5-7.5s-3.357-7.5-7.5-7.5h-61.95c-11.593-21.852-29.427-53.073-48.204-76.964-2.561-3.257-7.275-3.821-10.531-1.263-3.257 2.56-3.821 7.275-1.262 10.531 22.736 28.93 44.705 70.37 54.474 89.716h-25.734l-.913-2.486c-4.025-10.96-14.574-18.324-26.25-18.324h-5.71c-2.166 0-4.131-1.197-5.125-3.12l-2.701-5.235-14.925-53.536c-1.395-4.999-6.073-8.357-11.644-8.356-5.568.001-10.246 3.36-11.64 8.358l-9.952 35.699h-2.406c-6.425-12.462-13.921-25.419-22.019-38.157 18.281-21.669 35.839-34.463 47.511-34.463 3.782 0 8.658 2.135 14.102 6.173 3.324 2.468 8.022 1.772 10.492-1.554 2.468-3.327 1.772-8.024-1.555-10.492-8.162-6.056-15.913-9.127-23.039-9.127-11.374 0-30.055 6.57-56.074 36.404-10.969-16.225-22.666-31.664-34.047-44.746-2.718-3.126-7.455-3.454-10.581-.736-3.125 2.719-3.454 7.456-.735 10.581 20.841 23.957 42.782 56.087 58.986 86.118h-39.06l-10.641-38.169c-1.394-5-6.072-8.358-11.642-8.358s-10.248 3.359-11.642 8.358l-10.641 38.169h-21.711c1.738-3.753 3.39-7.553 4.942-11.375 3.047-7.525 5.58-15.635 3.507-23.944-2.639-10.615-11.08-16.253-14.571-22.655-6.275-11.534 6.467-23.551 13.462-33.726 5.604-8.15 8.332-16.127 8.155-23.4 1.725 1.1 3.73 2.521 6.052 4.364 3.246 2.577 7.962 2.034 10.538-1.21 2.575-3.244 2.033-7.961-1.21-10.537-9.591-7.615-17.475-11.316-24.104-11.316-7.869 0-16.917 4.845-27.579 14.762-5.575-8.957-15.377-14.879-26.276-14.952-.063 0-.126 0-.189 0-12.009 0-22.729 6.854-27.972 17.156-2.997-.702-6.077-1.056-9.214-1.056-19.685 0-36.112 14.169-39.639 32.84h-28.882c-4.143 0-7.5 3.358-7.5 7.5s3.357 7.5 7.5 7.5h92.623c-18.501 27.434-37.988 61.737-54.03 95.03h-75.843c-4.143 0-7.5 3.358-7.5 7.5s3.357 7.497 7.5 7.497zm336.527-61.582 12.243 43.918h-24.486c2.686-9.634 9.468-33.963 12.243-43.918zm-102.301-2.469 12.243 43.916h-24.486c2.33-8.359 10.001-35.875 12.243-43.916zm-152.672-60.979c3.206-10.322 12.849-17.84 24.216-17.84 3.713 0 7.292.786 10.639 2.335 2.084.965 4.496.922 6.545-.117s3.508-2.96 3.96-5.212c1.527-7.609 8.265-13.106 16.038-13.106h.099c6.962.046 13.074 4.766 15.306 11.397-5.668 6.4-11.671 13.929-17.966 22.543zm64.677 17.652c20.287-29.201 35.298-43.891 44.307-49.114 1.053 5.398-2.117 11.641-5.329 16.312-3.882 5.645-8.614 10.803-12.411 17.399-6.388 11.104-7.051 22.466-1.863 32.002 4.399 8.066 11.669 12.994 13.188 19.104 1.089 4.361-.903 9.869-2.853 14.684-2.337 5.756-4.924 11.456-7.695 17.011h-27.685c-10.937 0-20.854 6.037-25.879 15.75l-4.878 9.417c-.836 1.61-2.405 2.748-4.195 3.042l-21.716 3.56c16.903-35.122 37.709-71.385 57.009-99.167zm-83.321 129.688c0-6.379 4.568-11.758 10.862-12.789l39.594-6.49c6.44-1.058 12.078-5.147 15.083-10.941l4.882-9.423c2.44-4.716 7.252-7.646 12.559-7.646h61.872l-1.168 4.191c-.991 3.554-.256 7.309 2.017 10.302 2.546 3.352 6.743 5.353 11.229 5.353h6.887v9.276c0 4.142 3.357 7.5 7.5 7.5s7.5-3.358 7.5-7.5v-9.276h6.888c4.486 0 8.685-2.001 11.229-5.354 2.272-2.993 3.007-6.749 2.016-10.301l-1.168-4.19h50.062l-1.857 6.662c-.991 3.554-.256 7.309 2.017 10.302 2.546 3.352 6.743 5.353 11.229 5.353h6.887v9.276c0 4.142 3.357 7.5 7.5 7.5s7.5-3.358 7.5-7.5v-9.276h6.888c2.195 0 4.317-.485 6.214-1.367 3.733 3.323 8.597 5.241 13.791 5.241h5.71c5.413 0 10.304 3.414 12.17 8.496l6.375 17.354h-332.268z"/><path d="m504.5 432.68h-497c-4.143 0-7.5 3.358-7.5 7.5s3.357 7.5 7.5 7.5h497c4.143 0 7.5-3.358 7.5-7.5s-3.357-7.5-7.5-7.5z"/><path d="m332.808 128.26h110.507c14.618 0 26.511-11.893 26.511-26.511v-5.535c0-17.473-13.964-31.78-31.127-31.894-.07 0-.14 0-.21 0-12.002 0-22.711 6.848-27.95 17.15-3-.704-6.08-1.059-9.217-1.059-19.686 0-36.124 14.172-39.649 32.849h-28.864c-4.143 0-7.5 3.358-7.5 7.5s3.356 7.5 7.499 7.5zm68.513-32.848c3.708 0 7.288.788 10.64 2.341 2.083.966 4.497.924 6.547-.116s3.51-2.961 3.961-5.214c1.525-7.608 8.253-13.103 16.021-13.103h.109c8.947.059 16.227 7.638 16.227 16.894v5.535c0 6.347-5.164 11.511-11.511 11.511h-66.209c3.204-10.327 12.848-17.848 24.215-17.848z"/><path d="m369.879 386.174c-4.143 0-7.5 3.358-7.5 7.5s3.357 7.5 7.5 7.5h30c4.143 0 7.5-3.358 7.5-7.5s-3.357-7.5-7.5-7.5z"/><path d="m64.141 386.174c-4.143 0-7.5 3.358-7.5 7.5s3.357 7.5 7.5 7.5h20c4.143 0 7.5-3.358 7.5-7.5s-3.357-7.5-7.5-7.5z"/><path d="m206.318 399.964c-4.143 0-7.5 3.358-7.5 7.5s3.357 7.5 7.5 7.5h15c4.143 0 7.5-3.358 7.5-7.5s-3.357-7.5-7.5-7.5z"/></g></svg>