<?xml version="1.0" encoding="utf-8"?>
<!-- Generator: Adobe Illustrator 24.0.1, SVG Export Plug-In . SVG Version: 6.00 Build 0)  -->
<svg version="1.1" id="pigs" xmlns="http://www.w3.org/2000/svg" xmlns:xlink="http://www.w3.org/1999/xlink" x="0px" y="0px"
	 viewBox="0 0 193.7 180" style="enable-background:new 0 0 193.7 180;" xml:space="preserve" height="250px">
<g>
	<path d="M58.9,73.5c6.4,0,11.7-5.2,11.7-11.7s-5.2-11.7-11.7-11.7s-11.7,5.2-11.7,11.7S52.4,73.5,58.9,73.5z M58.9,56.8
		c2.8,0,5,2.2,5,5c0,2.8-2.2,5-5,5s-5-2.2-5-5C53.9,59,56.1,56.8,58.9,56.8z"/>
	<path d="M184.7,107.3c-2,0-3.6,1.6-3.6,3.6s1.6,3.6,3.6,3.6c2,0,3.6-1.6,3.6-3.6S186.7,107.3,184.7,107.3L184.7,107.3z"/>
	<path d="M26.8,40.5c0.7,0.7,1.5,1,2.4,1c0.9,0,1.7-0.3,2.4-1l2.4-2.4l2.4,2.4c0.7,0.7,1.5,1,2.4,1s1.7-0.3,2.4-1
		c1.3-1.3,1.3-3.4,0-4.7l-2.4-2.4l2.4-2.4c1.3-1.3,1.3-3.4,0-4.7c-1.3-1.3-3.4-1.3-4.7,0l-2.4,2.4l-2.4-2.4c-1.3-1.3-3.4-1.3-4.7,0
		c-1.3,1.3-1.3,3.4,0,4.7l2.4,2.4l-2.4,2.4C25.5,37.1,25.5,39.2,26.8,40.5L26.8,40.5z"/>
	<path d="M180.5,36.1c0-0.1,0-0.1,0-0.2c-0.2-2.1-0.6-4.2-1.3-6.2c11.8-2.9,12-10.5,11.8-12.8c-0.5-5.5-5.3-10.2-10.4-10.2
		c-3.8,0-5.7,1.7-6.5,3.1c-2.1,3.4-0.2,7.6,0.2,8.4c0.8,1.6,2.8,2.3,4.4,1.5c1.6-0.8,2.3-2.8,1.5-4.5c-0.3-0.5-0.5-1.3-0.5-1.8
		c0.2,0,0.4-0.1,0.8-0.1c1.5,0,3.6,2,3.8,4.2c0.4,3.8-5.3,5.4-7.8,5.9c-0.1,0-0.1,0.1-0.2,0.1c-5-8.1-14-13.5-24.1-13.5h-20
		c-3.1,0-6.1,0.5-8.9,1.4c-1.9-2.9-4.5-6-8-7.7c-7-3.5-12-1.2-13.8,0.6c-0.6,0.6-1,1.5-1,2.4c0,5.6,1.1,10,2.6,13.3l-7.6,10.1h-8.3
		c-1.8,0-3.3,1.5-3.3,3.3v13.3c0,1.5,1,2.9,2.5,3.2l4.4,1.1c1,0.8,2.1,1.7,3.2,2.5c3.9,3.2,8.4,6.9,13.3,8.4v11.4
		c0,1.8,1.5,3.3,3.3,3.3h10c1.8,0,3.3-1.5,3.3-3.3c0,0,0-3.2,1.3-7.6c2.3,0.6,4.7,0.9,7.1,0.9h20c2.8,0,5.5-0.4,8.1-1.2
		c0.2,0.8,0.3,1.1,0.3,1.2v6.7c0,1.8,1.5,3.3,3.3,3.3h6.7c1.3,0,2.4-0.7,3-1.8C174,74.1,184,53.7,180.5,36.1z M168.4,70.1h-1.2v-3.3
		c0-1.1-0.3-2.8-2.1-7.5c0,0,0,0,0,0c-2-4.9-4.8-10.4-4.9-10.7c-0.8-1.6-2.8-2.3-4.5-1.5c-1.6,0.8-2.3,2.8-1.5,4.5
		c0,0,1.9,3.8,3.6,7.7c-1.8,0.5-3.7,0.8-5.6,0.8h-20c-1.6,0-3.1-0.2-4.6-0.6c0.7-1.5,1.5-2.9,2.4-4.3c1-1.5,0.6-3.6-0.9-4.6
		c-1.5-1-3.6-0.6-4.6,0.9c-1.9,2.8-3.4,5.9-4.6,9.1c0,0,0,0,0,0.1c-1.4,3.8-2,7.1-2.3,9.4h-3.6V59.4c0-1.6-1.1-3-2.7-3.3l-1.3-0.3
		c-3.8-0.8-8-4.3-11.7-7.3c-1.3-1.1-2.7-2.2-3.9-3.1c-0.4-0.3-0.8-0.5-1.2-0.6l-2.5-0.6v-7.4h6.7c1,0,2-0.5,2.7-1.3l7.1-9.5
		c2.8,3,5.6,3.9,5.8,4c0.3,0.1,0.7,0.2,1.1,0.2c1.4,0,2.7-0.9,3.2-2.3c0.6-1.7-0.4-3.6-2.1-4.2c-0.1,0-7-2.7-7.7-14.9
		c1-0.2,2.7-0.2,5.1,1c4.4,2.2,7.5,9,8.3,11.4c0.6,1.7,2.5,2.7,4.2,2.1c1.7-0.6,2.7-2.5,2.1-4.2c0-0.1-0.2-0.7-0.6-1.5
		c1.9-0.5,3.8-0.8,5.7-0.8h20c11.3,0,20.7,8.7,21.6,19.9c0,0.5,0.1,1,0.3,1.4C176.3,50.5,170.6,65.1,168.4,70.1L168.4,70.1z"/>
	<circle cx="107.2" cy="36.8" r="3.3"/>
	<circle cx="27.2" cy="113.5" r="3.3"/>
	<path d="M150.5,106.8c-3.8,0-5.7,1.7-6.5,3.1c-2.1,3.4-0.2,7.6,0.2,8.4c0.8,1.6,2.8,2.3,4.4,1.5c1.6-0.8,2.3-2.8,1.5-4.5
		c-0.3-0.5-0.5-1.3-0.5-1.8c0.2,0,0.4-0.1,0.8-0.1c1.5,0,3.6,2,3.8,4.2c0.4,3.8-5.3,5.4-7.8,5.9c-0.1,0-0.1,0.1-0.2,0.1
		c-5-8.1-14-13.5-24.1-13.5h-20c-0.7,0-1.4,0.1-2.1,0.1c-0.2-1.3-0.6-2.6-1-3.8c11.8-2.9,12-10.5,11.8-12.8
		c-0.5-5.5-5.3-10.2-10.4-10.2c-3.8,0-5.7,1.7-6.5,3.1c-2.1,3.4-0.2,7.6,0.2,8.4c0.8,1.6,2.8,2.3,4.4,1.5c1.6-0.8,2.3-2.8,1.5-4.5
		c-0.3-0.5-0.5-1.3-0.5-1.8c0.2,0,0.4-0.1,0.8-0.1c1.5,0,3.6,2,3.8,4.2c0.4,3.8-5.3,5.4-7.8,5.9c-0.1,0-0.1,0.1-0.2,0.1
		c-5-8.1-14-13.5-24.1-13.5h-20c-3.1,0-6.1,0.5-8.9,1.4c-1.9-2.9-4.5-6-8-7.7c-7-3.5-12-1.2-13.8,0.6c-0.6,0.6-1,1.5-1,2.4
		c0,5.6,1.1,10,2.6,13.3l-7.6,10.1H7.2c-1.8,0-3.3,1.5-3.3,3.3v13.3c0,1.5,1,2.9,2.5,3.2l4.4,1.1c1,0.8,2.1,1.7,3.2,2.5
		c3.9,3.2,8.4,6.9,13.3,8.4v11.4c0,1.8,1.5,3.3,3.3,3.3h10c1.8,0,3.3-1.5,3.3-3.3c0,0,0-3.2,1.3-7.6c2.3,0.6,4.7,0.9,7.1,0.9h1.7
		v3.3c0,1.5,1,2.9,2.5,3.2l4.4,1.1c1,0.8,2.1,1.7,3.2,2.5c3.9,3.2,8.4,6.9,13.3,8.4v11.4c0,1.8,1.5,3.3,3.3,3.3h10
		c1.8,0,3.3-1.5,3.3-3.3c0,0,0-3.2,1.3-7.6c2.3,0.6,4.7,0.9,7.1,0.9h20c2.8,0,5.5-0.4,8.1-1.2c0.2,0.8,0.3,1.1,0.3,1.2v6.7
		c0,1.8,1.5,3.3,3.3,3.3h6.7c1.3,0,2.4-0.7,3-1.8c0.4-0.9,10.5-21.2,7-38.8c0-0.1,0-0.1,0-0.2c-0.2-2.1-0.6-4.2-1.3-6.2
		c11.8-2.9,12-10.5,11.8-12.8C160.4,111.5,155.6,106.8,150.5,106.8L150.5,106.8z M52.2,136.8c-1.6,0-3.1-0.2-4.6-0.6
		c0.7-1.5,1.5-2.9,2.4-4.3c1-1.5,0.6-3.6-0.9-4.6c-1.5-1-3.6-0.6-4.6,0.9c-1.9,2.8-3.4,5.9-4.6,9.1c0,0,0,0,0,0.1
		c-1.4,3.8-2,7.1-2.3,9.4h-3.6v-10.7c0-1.6-1.1-3-2.7-3.3l-1.3-0.3c-3.8-0.8-8-4.3-11.7-7.3c-1.3-1.1-2.7-2.2-3.9-3.1
		c-0.4-0.3-0.8-0.5-1.2-0.6l-2.5-0.6v-7.4h6.7c1,0,2-0.5,2.7-1.3l7.1-9.5c2.8,3,5.6,3.9,5.8,4c0.3,0.1,0.7,0.2,1.1,0.2
		c1.4,0,2.7-0.9,3.2-2.3c0.6-1.7-0.4-3.6-2.1-4.2c-0.1,0-7-2.7-7.7-14.9c1-0.2,2.7-0.2,5.1,1c4.4,2.2,7.5,9,8.3,11.4
		c0.6,1.7,2.5,2.7,4.2,2.1c1.7-0.6,2.7-2.5,2.1-4.2c0-0.1-0.2-0.7-0.6-1.5c1.9-0.5,3.8-0.8,5.7-0.8h20c10.6,0,19.6,7.8,21.4,18
		c-0.1,0-0.1,0.1-0.2,0.1c-1.9-2.9-4.5-6-8-7.7c-7-3.5-12-1.2-13.8,0.6c-0.6,0.6-1,1.5-1,2.4c0,5.6,1.1,10,2.6,13.3l-7.6,10.1h-8.3
		c-1.8,0-3.3,1.5-3.3,3.3v3.3L52.2,136.8L52.2,136.8z M138.4,170.1h-1.2v-3.3c0-1.1-0.3-2.8-2.1-7.5c0,0,0,0,0,0
		c-2-4.9-4.8-10.4-4.9-10.7c-0.8-1.6-2.8-2.3-4.5-1.5c-1.6,0.8-2.3,2.8-1.5,4.5c0,0,1.9,3.8,3.6,7.7c-1.8,0.5-3.7,0.8-5.6,0.8h-20
		c-1.6,0-3.1-0.2-4.6-0.6c0.7-1.5,1.5-2.9,2.4-4.3c1-1.5,0.6-3.6-0.9-4.6c-1.5-1-3.6-0.6-4.6,0.9c-1.9,2.8-3.4,5.9-4.6,9.1
		c0,0,0,0,0,0.1c-1.4,3.8-2,7.1-2.3,9.4h-3.6v-10.7c0-1.6-1.1-3-2.7-3.3l-1.3-0.3c-3.8-0.8-8-4.3-11.7-7.3c-1.3-1.1-2.7-2.2-3.9-3.1
		c-0.4-0.3-0.8-0.5-1.2-0.6l-2.5-0.6v-7.4h6.7c1.1,0,2-0.5,2.7-1.3l7.1-9.5c2.8,3,5.6,3.9,5.8,4c0.3,0.1,0.7,0.2,1.1,0.2
		c1.4,0,2.7-0.9,3.2-2.3c0.6-1.7-0.4-3.6-2.1-4.2c-0.1,0-7-2.7-7.7-14.9c1-0.2,2.7-0.2,5.1,1c4.4,2.2,7.5,9,8.3,11.4
		c0.6,1.7,2.5,2.7,4.2,2.1c1.7-0.6,2.7-2.5,2.1-4.2c0-0.1-0.2-0.7-0.6-1.5c1.9-0.5,3.8-0.8,5.7-0.8h20c11.3,0,20.7,8.7,21.6,19.9
		c0,0.5,0.1,1,0.3,1.4C146.3,150.5,140.6,165.1,138.4,170.1L138.4,170.1z"/>
	<circle cx="77.2" cy="136.8" r="3.3"/>
</g>
</svg>
