<svg id="pigs" enable-background="new 0 0 300 300" height="250px" viewBox="0 0 300 300" width="512" xmlns="http://www.w3.org/2000/svg" fill="#000"><g><path d="m103.728 130.885c7.719 0 14-6.281 14-14s-6.281-14-14-14-14 6.281-14 14 6.281 14 14 14zm0-20c3.309 0 6 2.691 6 6s-2.691 6-6 6-6-2.691-6-6 2.691-6 6-6z"/><path d="m254.733 171.535c-2.362 0-4.276 1.915-4.276 4.277s1.915 4.276 4.276 4.276c2.362 0 4.277-1.915 4.277-4.276s-1.915-4.277-4.277-4.277z"/><path d="m65.243 91.369c.781.781 1.805 1.172 2.828 1.172s2.047-.391 2.828-1.172l2.828-2.828 2.828 2.828c.781.781 1.805 1.172 2.828 1.172s2.047-.391 2.828-1.172c1.562-1.562 1.562-4.094 0-5.656l-2.828-2.828 2.828-2.828c1.562-1.562 1.562-4.094 0-5.656s-4.094-1.562-5.656 0l-2.828 2.828-2.827-2.829c-1.562-1.562-4.094-1.562-5.656 0s-1.562 4.094 0 5.656l2.828 2.828-2.828 2.828c-1.563 1.563-1.563 4.094-.001 5.657z"/><path d="m249.65 86.099c-.016-.08-.035-.16-.057-.238-.227-2.574-.773-5.049-1.542-7.423 14.145-3.454 14.444-12.553 14.169-15.345-.656-6.617-6.377-12.209-12.492-12.209-4.592 0-6.805 2.021-7.854 3.717-2.504 4.053-.209 9.102.275 10.072.982 1.965 3.361 2.758 5.336 1.787 1.973-.969 2.787-3.361 1.832-5.342-.318-.658-.568-1.604-.594-2.148.203-.043.523-.086 1.004-.086 1.779 0 4.268 2.354 4.531 4.998.457 4.617-6.363 6.488-9.316 7.08-.1.02-.174.086-.271.114-6.018-9.733-16.794-16.192-28.944-16.192h-24c-3.689 0-7.281.6-10.636 1.712-2.274-3.533-5.445-7.225-9.575-9.29-8.354-4.178-14.375-1.494-16.617.75-.75.75-1.172 1.768-1.172 2.828 0 6.779 1.281 11.946 3.074 15.902l-9.074 12.098h-10c-2.209 0-4 1.791-4 4v16c0 1.83 1.242 3.426 3.016 3.877l5.256 1.334c1.227.947 2.49 1.988 3.783 3.057 4.723 3.893 10.023 8.264 15.945 10.057v13.676c0 2.209 1.791 4 4 4h12c2.195 0 3.98-1.781 4-3.977 0-.047.055-3.83 1.533-9.098 2.756.713 5.594 1.074 8.467 1.074h24c3.303 0 6.545-.469 9.674-1.396.289.977.322 1.344.326 1.396v8c0 2.209 1.791 4 4 4h8c1.516 0 2.9-.855 3.578-2.211.515-1.031 12.565-25.47 8.345-46.574zm-14.489 40.786h-1.434v-4c0-1.305-.306-3.391-2.573-8.961-.002-.006-.001-.013-.004-.019-2.395-5.893-5.707-12.529-5.846-12.809-.988-1.975-3.385-2.777-5.367-1.789-1.977.988-2.777 3.391-1.789 5.367.027.055 2.263 4.542 4.323 9.252-2.193.589-4.441.958-6.745.958h-24c-1.885 0-3.732-.276-5.554-.679.862-1.768 1.804-3.485 2.882-5.103 1.225-1.84.729-4.322-1.109-5.547-1.844-1.232-4.326-.73-5.547 1.109-2.242 3.365-4.102 7.029-5.527 10.887-.01.025-.003.052-.012.077-1.653 4.501-2.437 8.489-2.804 11.255h-4.328v-12.865c0-1.912-1.354-3.559-3.23-3.926l-1.539-.301c-4.604-.994-9.641-5.148-14.086-8.814-1.615-1.33-3.186-2.623-4.701-3.76-.422-.316-.902-.545-1.414-.676l-3.029-.77v-8.889h8c1.26 0 2.445-.592 3.199-1.6l8.576-11.434c3.394 3.551 6.676 4.734 6.959 4.829.42.141.848.207 1.266.207 1.676 0 3.236-1.061 3.795-2.736.699-2.096-.434-4.361-2.529-5.061-.088-.029-8.385-3.217-9.201-17.842 1.193-.268 3.205-.256 6.146 1.215 5.309 2.654 9.016 10.785 9.996 13.693.703 2.092 2.977 3.209 5.062 2.518 2.094-.701 3.223-2.961 2.525-5.055-.038-.114-.27-.783-.678-1.782 2.23-.612 4.528-.952 6.883-.952h24c13.518 0 24.822 10.445 25.912 23.857-.021.57.084 1.143.307 1.674 2.637 14.882-4.132 32.388-6.785 38.472z"/><circle cx="161.728" cy="86.885" r="4"/><circle cx="65.728" cy="178.885" r="4"/><path d="m213.728 170.885c-4.592 0-6.805 2.021-7.854 3.717-2.504 4.053-.209 9.102.275 10.072.982 1.965 3.365 2.758 5.336 1.787 1.973-.969 2.787-3.361 1.832-5.342-.318-.658-.568-1.604-.594-2.148.203-.043.523-.086 1.004-.086 1.779 0 4.268 2.354 4.531 4.998.457 4.617-6.363 6.488-9.316 7.08-.1.02-.174.086-.271.114-6.018-9.733-16.794-16.192-28.944-16.192h-24c-.848 0-1.685.066-2.521.127-.274-1.568-.677-3.087-1.158-4.572 14.147-3.454 14.447-12.553 14.172-15.345-.656-6.617-6.377-12.209-12.492-12.209-4.592 0-6.805 2.021-7.854 3.717-2.504 4.053-.209 9.102.275 10.072.982 1.967 3.365 2.754 5.336 1.787 1.973-.969 2.787-3.361 1.832-5.342-.318-.658-.568-1.604-.594-2.148.203-.043.523-.086 1.004-.086 1.779 0 4.268 2.354 4.531 4.998.457 4.617-6.363 6.488-9.316 7.08-.103.021-.179.089-.278.117-6.019-9.732-16.788-16.195-28.937-16.195h-24c-3.689 0-7.281.6-10.636 1.712-2.274-3.533-5.445-7.225-9.575-9.29-8.352-4.176-14.375-1.492-16.617.75-.75.75-1.172 1.768-1.172 2.828 0 6.779 1.281 11.946 3.074 15.902l-9.074 12.098h-10c-2.209 0-4 1.791-4 4v16c0 1.83 1.242 3.426 3.016 3.877l5.256 1.334c1.227.947 2.49 1.988 3.783 3.057 4.723 3.893 10.023 8.264 15.945 10.057v13.676c0 2.209 1.791 4 4 4h12c2.195 0 3.98-1.781 4-3.977 0-.047.055-3.83 1.533-9.098 2.756.713 5.594 1.074 8.467 1.074h2v4c0 1.83 1.242 3.426 3.016 3.877l5.256 1.334c1.227.947 2.49 1.988 3.783 3.057 4.723 3.893 10.023 8.264 15.945 10.057v13.676c0 2.209 1.791 4 4 4h12c2.195 0 3.98-1.781 4-3.977 0-.047.055-3.83 1.533-9.098 2.756.713 5.594 1.074 8.467 1.074h24c3.303 0 6.545-.469 9.674-1.396.289.977.322 1.344.326 1.396v8c0 2.209 1.791 4 4 4h8c1.516 0 2.9-.855 3.578-2.211.514-1.031 12.564-25.471 8.344-46.574-.016-.08-.035-.16-.057-.238-.227-2.574-.773-5.049-1.542-7.423 14.145-3.454 14.444-12.553 14.169-15.345-.655-6.619-6.376-12.21-12.491-12.21zm-118 36c-1.885 0-3.732-.276-5.554-.679.862-1.768 1.804-3.485 2.882-5.103 1.225-1.84.729-4.322-1.109-5.547-1.84-1.23-4.328-.73-5.547 1.109-2.242 3.365-4.102 7.029-5.527 10.887-.01.025-.003.052-.012.077-1.653 4.501-2.437 8.489-2.804 11.255h-4.328v-12.865c0-1.912-1.354-3.559-3.23-3.926l-1.539-.301c-4.604-.994-9.641-5.148-14.086-8.814-1.615-1.33-3.186-2.623-4.701-3.76-.422-.316-.902-.545-1.414-.676l-3.029-.77v-8.889h8c1.26 0 2.445-.592 3.199-1.6l8.576-11.434c3.394 3.551 6.676 4.734 6.959 4.829.42.141.848.207 1.266.207 1.676 0 3.236-1.061 3.795-2.736.699-2.096-.434-4.361-2.529-5.061-.088-.029-8.385-3.217-9.201-17.842 1.195-.27 3.207-.258 6.146 1.215 5.309 2.654 9.016 10.785 9.996 13.693.703 2.092 2.977 3.209 5.062 2.518 2.094-.701 3.223-2.961 2.525-5.055-.038-.114-.27-.783-.678-1.783 2.23-.612 4.529-.952 6.883-.952h24c12.753 0 23.531 9.3 25.624 21.615-.089.029-.172.068-.26.097-2.274-3.533-5.445-7.225-9.575-9.29-8.352-4.178-14.375-1.494-16.617.75-.75.75-1.172 1.768-1.172 2.828 0 6.779 1.281 11.946 3.074 15.902l-9.074 12.098h-10c-2.209 0-4 1.791-4 4v4h-2.001zm103.433 40h-1.434v-4c0-1.305-.306-3.391-2.573-8.961-.002-.006-.001-.013-.004-.019-2.395-5.893-5.707-12.529-5.846-12.809-.986-1.977-3.389-2.779-5.367-1.789-1.977.988-2.777 3.391-1.789 5.367.027.055 2.263 4.542 4.323 9.252-2.193.589-4.441.958-6.745.958h-24c-1.885 0-3.732-.276-5.554-.679.862-1.768 1.804-3.485 2.882-5.103 1.225-1.84.729-4.322-1.109-5.547-1.842-1.229-4.326-.727-5.547 1.109-2.242 3.365-4.102 7.029-5.527 10.887-.01.025-.003.052-.012.077-1.653 4.501-2.437 8.489-2.804 11.255h-4.328v-12.865c0-1.912-1.354-3.559-3.23-3.926l-1.539-.301c-4.604-.994-9.641-5.148-14.086-8.814-1.615-1.33-3.186-2.623-4.701-3.76-.422-.316-.902-.545-1.414-.676l-3.029-.77v-8.889h8c1.26 0 2.445-.592 3.199-1.6l8.576-11.434c3.394 3.551 6.676 4.734 6.959 4.829.42.141.848.207 1.266.207 1.676 0 3.236-1.061 3.795-2.736.699-2.096-.434-4.361-2.529-5.061-.088-.029-8.385-3.217-9.201-17.842 1.195-.27 3.207-.258 6.146 1.215 5.309 2.654 9.016 10.785 9.996 13.693.705 2.09 2.98 3.217 5.062 2.518 2.094-.701 3.223-2.961 2.525-5.055-.038-.114-.27-.783-.678-1.782 2.23-.612 4.528-.952 6.883-.952h24c13.518 0 24.822 10.445 25.912 23.857-.021.57.084 1.143.307 1.674 2.637 14.882-4.132 32.388-6.785 38.472z"/><circle cx="125.728" cy="206.885" r="4"/></g></svg>