<svg id="Capa_1" enable-background="new 0 0 512.022 512.022" height="512" viewBox="0 0 512.022 512.022" width="512" xmlns="http://www.w3.org/2000/svg"><g><g id="Page-1_4_"><g id="_x30_05---Waving-Unicorn" transform="translate(-1)"><path id="Path_27_" clip-rule="evenodd" d="m382.562 237.933c9.696.114 19.07-3.478 26.206-10.044 3.234-3.348 3.188-8.671-.104-11.962-3.292-3.292-8.614-3.338-11.962-.104-.119.119-12.348 11.947-31.898-1.067-2.536-1.755-5.822-2.005-8.595-.654-2.772 1.351-4.6 4.093-4.78 7.172s1.315 6.016 3.911 7.681c7.971 5.652 17.454 8.78 27.222 8.978z" fill-rule="evenodd"/><path id="Shape_9_" d="m300.335 179.189c0 4.713 3.82 8.533 8.533 8.533h34.133c3.463-.004 6.579-2.1 7.889-5.305s.553-6.884-1.916-9.312c3.856-7.912 3.349-17.254-1.342-24.702s-12.897-11.941-21.698-11.881c-14.138 0-25.6 11.462-25.6 25.6.016 3.807.891 7.561 2.56 10.982-1.64 1.6-2.563 3.795-2.559 6.085zm25.6-25.6c4.713 0 8.533 3.821 8.533 8.533s-3.821 8.533-8.533 8.533-8.533-3.82-8.533-8.533 3.82-8.533 8.533-8.533z"/><path id="Path_26_" clip-rule="evenodd" d="m394.202 196.256c4.713 0 8.533-3.821 8.533-8.533v-8.533c0-4.713-3.821-8.533-8.533-8.533-4.713 0-8.533 3.821-8.533 8.533v8.533c-.001 4.713 3.82 8.533 8.533 8.533z" fill-rule="evenodd"/><path id="Path_25_" clip-rule="evenodd" d="m419.802 196.256c4.713 0 8.533-3.821 8.533-8.533v-8.533c0-4.713-3.821-8.533-8.533-8.533-4.713 0-8.533 3.821-8.533 8.533v8.533c-.001 4.713 3.82 8.533 8.533 8.533z" fill-rule="evenodd"/><path id="Shape_8_" d="m111.97 511.99c21.12.05 41.033-9.837 53.76-26.692 13.622-17.074 18.845-39.367 14.225-60.715l-.725-2.884c-4.378-17.476-8.107-32.606-5.47-39.586 3.001 21.185 14.606 40.196 32.077 52.548v43.196c0 18.851 15.282 34.133 34.133 34.133s34.133-15.282 34.133-34.133v-25.6c2.935 0 5.717-.196 8.533-.35v25.95c0 18.851 15.282 34.133 34.133 34.133s34.133-15.282 34.133-34.133v-49.937c30.624-23.637 42.163-64.536 28.407-100.693l62.447-41.353c7.159-4.73 11.472-12.732 11.487-21.313.015-8.58-4.269-16.598-11.411-21.354 8.302-8.005 14.29-18.102 17.331-29.227 9.301-33.613-6.707-76.339-34.987-93.303-14.191-8.533-26.974-16.973-38.281-25.259 5.683-17.766-1.894-40.388-19.285-57.301l9.975-26.59c1.316-3.514.182-7.476-2.794-9.761s-7.096-2.359-10.151-.18l-26.155 18.679c-6.49-2.1-13.266-3.182-20.087-3.209-31.983 0-49.135 12.501-57.805 22.605-9.3-1.946-18.99.131-26.675 5.717-5.673 4.039-9.63 10.054-11.093 16.862-30.293 8.269-49.493 36.693-49.493 74.283.929 17.366 3.949 34.557 8.994 51.2 4.147 15.983 9.293 35.84 5.231 41.122-1.015 1.314-3.661 1.587-5.692 1.587-16.708 0-17.067-24.576-17.067-25.6.001-2.743-1.317-5.319-3.542-6.923s-5.085-2.041-7.688-1.175c-1.289.435-31.437 10.837-31.437 42.231-.591 17.529 5.831 34.57 17.844 47.35 12.012 12.78 28.624 20.243 46.156 20.737-3.513 6.626-6.401 13.566-8.627 20.727-8.491-7.323-19.202-11.571-30.404-12.058-13.707-.828-26.854 5.55-34.688 16.828-10.991 16.213-10.564 42.359 1.161 71.68 5.828 14.652 6.775 28.297 2.406 34.739-.802 1.169-3.234 4.753-11.546 4.753-2.308.242-4.584-.691-6.059-2.483-5.214-6.332-4.028-22.938-2.637-29.986.599-2.988-.442-6.069-2.73-8.082s-5.476-2.654-8.364-1.68c-1.263.418-31.411 10.94-31.411 50.765-.533 16 5.589 31.505 16.909 42.825s26.829 17.443 42.829 16.91zm128-17.067c-9.426 0-17.067-7.641-17.067-17.067h34.133c.001 9.426-7.64 17.067-17.066 17.067zm76.8 0c-9.426 0-17.067-7.641-17.067-17.067h34.133c.001 9.426-7.64 17.067-17.066 17.067zm17.067-34.134h-34.133v-10.641c11.882-1.983 23.392-5.767 34.133-11.221zm24.456-198.067c6.215 1.156 12.52 1.759 18.842 1.801 1.545 0 2.944-.111 4.429-.154l-21.163 14.02c-1.145-5.153-1.851-10.394-2.108-15.667zm13.423 46.447c-2.099-4.608-4.139-9.156-5.973-13.833l36.89-24.422 10.24 13.653-40.226 26.633zm64.367-42.922c-.451 2.23-1.788 4.182-3.703 5.41l-5.257 3.473-10.24-13.653 6.17-4.079c3.943-2.579 9.229-1.475 11.81 2.466 1.241 1.874 1.68 4.166 1.22 6.366zm-116.616-212.139 31.369-22.4-13.346 35.695c-7.609-1.681-14.168-6.468-18.091-13.201.018-.035.041-.066.068-.094zm-1.459-19.925-8.457 6.042c-7.029 4.957-9.23 14.393-5.12 21.948 6.164 11.035 16.7 18.956 29.013 21.811 1.323.328 2.682.494 4.045.495 7.111-.012 13.469-4.432 15.957-11.093l6.511-17.357c10.095 12.8 13.875 28.16 8.141 37.999-2.609 4.181-6.568 7.345-11.221 8.969-17.017 7.816-36.304 9.139-54.229 3.721.614-1.818 1.109-3.729 1.638-5.623l.802.427c4.225 2.09 9.345.359 11.435-3.866s.359-9.345-3.866-11.435c-3.021-1.705-5.866-3.705-8.491-5.973-8.666-7.262-16.202-15.775-22.357-25.259-1.806-2.693-3.942-5.15-6.357-7.313 11.717-9.749 26.744-14.603 41.95-13.551.222-.002.401.058.606.058zm-75.017 24.951c4.829-3.42 11.094-4.067 16.521-1.707 3.361 1.47 6.193 3.933 8.115 7.057 6.193 9.426 13.556 18.028 21.914 25.6-.78 3.775-1.786 7.499-3.012 11.153-2.964 8.738 1.579 18.245 10.24 21.427 8.573 2.986 17.597 4.473 26.675 4.395 13.671-.151 27.187-2.92 39.817-8.158 5.097-2.03 9.739-5.056 13.653-8.9 11.469 8.354 24.328 16.853 38.528 25.353 19.354 11.622 35.149 45.781 27.307 74.112-6.929 24.832-29.602 37.99-65.613 37.99-26.925-.41-52.504-11.844-70.767-31.633-3.348-3.234-8.671-3.188-11.962.104-3.292 3.292-3.338 8.614-.104 11.962 13.166 13.462 29.175 23.809 46.857 30.285.517 20.249 5.657 40.112 15.027 58.069 7.114 12.957 11.147 27.379 11.785 42.146 0 36.514-28.689 75.699-91.452 76.706 1.731-3.62 4.226-6.823 7.313-9.387 10.091-8.05 15.939-20.278 15.872-33.186 0-4.713-3.82-8.533-8.533-8.533s-8.533 3.82-8.533 8.533c.055 7.851-3.539 15.282-9.728 20.113-9.888 7.992-15.705 19.97-15.872 32.683v15.471h-34.133v-42.667c0-4.713-3.82-8.533-8.533-8.533-2.936.036-5.641 1.602-7.134 4.13-12.339-12.587-18.466-30.78-18.466-55.33.394-18.632 6.15-36.755 16.58-52.198 9.677-.992 19.127-3.564 27.972-7.612l-10.027 55.202c-2.511 13.968 6.763 27.332 20.727 29.867 1.481.237 2.98.351 4.48.341 12.364-.023 22.957-8.852 25.207-21.009l13.056-72.107c.799-4.619-2.277-9.017-6.89-9.851-4.612-.834-9.034 2.207-9.904 6.813l-9.173 50.662-16.768-3.413 9.387-51.678c.444-.521.956-.973 1.382-1.502 25.011-31.326 13.389-82.543 5.692-116.437-1.135-4.975-2.176-9.557-2.978-13.585-6.827-33.971 4.07-41.899 3.985-41.899 2.896-1.444 4.727-4.401 4.727-7.637s-1.831-6.194-4.727-7.637c-9.134-5.041-16.663-12.553-21.726-21.675-.7-1.283-1.138-2.693-1.289-4.147v-.358-.316c-.217-3.611 1.498-7.067 4.505-9.079zm-2.005 292.779 16.777 3.413-.853 4.582c-.76 4.049-4.285 6.991-8.405 7.014-.508.003-1.016-.035-1.519-.111-4.649-.86-7.73-5.314-6.895-9.967zm-102.784-112.99c.009-8.077 3.799-15.684 10.24-20.557 3.413 13.892 12.51 29.09 32.427 29.09 7.342.514 14.481-2.539 19.183-8.201 9.19-11.878 3.917-32.256-2.202-55.859-4.659-15.236-7.495-30.97-8.448-46.874 0-28.826 13.03-49.997 34.492-57.079.171.375.358.768.546 1.161 4.857 9.285 11.775 17.336 20.224 23.535-5.12 8.533-9.327 23.97-3.891 51.123.853 4.164 1.903 8.883 3.063 14.02 6.98 30.72 17.51 77.099-2.372 102.007-9.984 12.493-27.494 18.833-52.062 18.833-13.732.521-27.06-4.706-36.777-14.423s-14.944-23.044-14.423-36.776zm-61.671 188.825c-.059 8.71 2.628 17.216 7.68 24.311 4.719 5.719 11.814 8.941 19.226 8.73 10.107.669 19.833-3.974 25.668-12.254 7.799-11.503 7.561-29.961-.674-50.654-9.455-23.62-10.53-44.467-2.884-55.765 4.766-6.469 12.549-10.001 20.557-9.327 10.235 1.223 19.632 6.26 26.317 14.106-.462 3.814-.701 7.652-.717 11.494 0 1.152.128 2.202.154 3.337-5.011 1.997-9.256 5.539-12.117 10.112-7.484 12.331-3.098 29.807 2.961 54.007l.725 2.884c3.398 16.246-.674 33.16-11.093 46.08-9.541 12.68-24.494 20.131-40.363 20.113-11.464.509-22.615-3.822-30.73-11.937s-12.446-19.266-11.937-30.73c-.323-8.737 2.215-17.342 7.227-24.507z"/></g></g></g></svg>