<?xml version="1.0" encoding="utf-8"?>
<!-- Generator: Adobe Illustrator 24.0.1, SVG Export Plug-In . SVG Version: 6.00 Build 0)  -->
<svg version="1.1" id="Capa_1" xmlns="http://www.w3.org/2000/svg" xmlns:xlink="http://www.w3.org/1999/xlink" x="0px" y="0px"
	 viewBox="0 0 210 250" style="enable-background:new 0 0 210 250;" xml:space="preserve">
<style type="text/css">
	.st0{fill-rule:evenodd;clip-rule:evenodd;}
</style>
<g>
	<g id="Page-1_4_">
		<g id="_x30_05---Waving-Unicorn" transform="translate(-1)">
			<path id="Path_27_" class="st0" d="M167.3,116.2c4.7,0.1,9.3-1.7,12.8-4.9c1.6-1.6,1.6-4.2-0.1-5.8c-1.6-1.6-4.2-1.6-5.8-0.1
				c-0.1,0.1-6,5.8-15.6-0.5c-1.2-0.9-2.8-1-4.2-0.3c-1.4,0.7-2.2,2-2.3,3.5c-0.1,1.5,0.6,2.9,1.9,3.8
				C157.9,114.5,162.5,116.1,167.3,116.2L167.3,116.2z"/>
			<path id="Shape_9_" d="M127.2,87.5c0,2.3,1.9,4.2,4.2,4.2H148c1.7,0,3.2-1,3.9-2.6c0.6-1.6,0.3-3.4-0.9-4.5
				c1.9-3.9,1.6-8.4-0.7-12.1c-2.3-3.6-6.3-5.8-10.6-5.8c-6.9,0-12.5,5.6-12.5,12.5c0,1.9,0.4,3.7,1.2,5.4
				C127.6,85.3,127.2,86.4,127.2,87.5L127.2,87.5z M139.7,75c2.3,0,4.2,1.9,4.2,4.2c0,2.3-1.9,4.2-4.2,4.2s-4.2-1.9-4.2-4.2
				C135.5,76.9,137.4,75,139.7,75z"/>
			<path id="Path_26_" class="st0" d="M173,95.8c2.3,0,4.2-1.9,4.2-4.2v-4.2c0-2.3-1.9-4.2-4.2-4.2c-2.3,0-4.2,1.9-4.2,4.2v4.2
				C168.8,94,170.7,95.8,173,95.8z"/>
			<path id="Path_25_" class="st0" d="M185.5,95.8c2.3,0,4.2-1.9,4.2-4.2v-4.2c0-2.3-1.9-4.2-4.2-4.2c-2.3,0-4.2,1.9-4.2,4.2v4.2
				C181.3,94,183.2,95.8,185.5,95.8z"/>
			<path id="Shape_8_" d="M35.2,250c10.3,0,20-4.8,26.2-13c6.7-8.3,9.2-19.2,6.9-29.6l-0.4-1.4c-2.1-8.5-4-15.9-2.7-19.3
				c1.5,10.3,7.1,19.6,15.7,25.7v21.1c0,9.2,7.5,16.7,16.7,16.7s16.7-7.5,16.7-16.7v-12.5c1.4,0,2.8-0.1,4.2-0.2v12.7
				c0,9.2,7.5,16.7,16.7,16.7s16.7-7.5,16.7-16.7v-24.4c15-11.5,20.6-31.5,13.9-49.2l30.5-20.2c3.5-2.3,5.6-6.2,5.6-10.4
				c0-4.2-2.1-8.1-5.6-10.4c4.1-3.9,7-8.8,8.5-14.3c4.5-16.4-3.3-37.3-17.1-45.6c-6.9-4.2-13.2-8.3-18.7-12.3
				c2.8-8.7-0.9-19.7-9.4-28l4.9-13c0.6-1.7,0.1-3.7-1.4-4.8c-1.5-1.1-3.5-1.2-5-0.1l-12.8,9.1c-3.2-1-6.5-1.6-9.8-1.6
				c-15.6,0-24,6.1-28.2,11c-4.5-1-9.3,0.1-13,2.8c-2.8,2-4.7,4.9-5.4,8.2c-14.8,4-24.2,17.9-24.2,36.3c0.5,8.5,1.9,16.9,4.4,25
				c2,7.8,4.5,17.5,2.6,20.1c-0.5,0.6-1.8,0.8-2.8,0.8c-8.2,0-8.3-12-8.3-12.5c0-1.3-0.6-2.6-1.7-3.4s-2.5-1-3.8-0.6
				c-0.6,0.2-15.3,5.3-15.3,20.6c-0.3,8.6,2.8,16.9,8.7,23.1c5.9,6.2,14,9.9,22.5,10.1c-1.7,3.2-3.1,6.6-4.2,10.1
				c-4.1-3.6-9.4-5.6-14.8-5.9c-6.7-0.4-13.1,2.7-16.9,8.2c-5.4,7.9-5.2,20.7,0.6,35c2.8,7.2,3.3,13.8,1.2,17
				c-0.4,0.6-1.6,2.3-5.6,2.3c-1.1,0.1-2.2-0.3-3-1.2c-2.5-3.1-2-11.2-1.3-14.6c0.3-1.5-0.2-3-1.3-3.9c-1.1-1-2.7-1.3-4.1-0.8
				C20.7,196.2,6,201.4,6,220.8c-0.3,7.8,2.7,15.4,8.3,20.9S27.4,250.2,35.2,250L35.2,250z M97.7,241.7c-4.6,0-8.3-3.7-8.3-8.3H106
				C106,237.9,102.3,241.7,97.7,241.7z M135.2,241.7c-4.6,0-8.3-3.7-8.3-8.3h16.7C143.5,237.9,139.8,241.7,135.2,241.7z M143.5,225
				h-16.7v-5.2c5.8-1,11.4-2.8,16.7-5.5V225z M155.5,128.3c3,0.6,6.1,0.9,9.2,0.9c0.8,0,1.4-0.1,2.2-0.1l-10.3,6.8
				C155.9,133.4,155.6,130.9,155.5,128.3z M162,151c-1-2.2-2-4.5-2.9-6.8l18-11.9l5,6.7l-19.6,13L162,151z M193.4,130
				c-0.2,1.1-0.9,2-1.8,2.6l-2.6,1.7l-5-6.7l3-2c1.9-1.3,4.5-0.7,5.8,1.2C193.4,127.8,193.7,128.9,193.4,130L193.4,130z M136.5,26.4
				l15.3-10.9l-6.5,17.4C141.6,32.1,138.4,29.8,136.5,26.4C136.5,26.4,136.5,26.4,136.5,26.4L136.5,26.4z M135.8,16.7l-4.1,3
				c-3.4,2.4-4.5,7-2.5,10.7c3,5.4,8.2,9.3,14.2,10.6c0.6,0.2,1.3,0.2,2,0.2c3.5,0,6.6-2.2,7.8-5.4l3.2-8.5c4.9,6.2,6.8,13.7,4,18.6
				c-1.3,2-3.2,3.6-5.5,4.4c-8.3,3.8-17.7,4.5-26.5,1.8c0.3-0.9,0.5-1.8,0.8-2.7l0.4,0.2c2.1,1,4.6,0.2,5.6-1.9
				c1-2.1,0.2-4.6-1.9-5.6c-1.5-0.8-2.9-1.8-4.1-2.9c-4.2-3.5-7.9-7.7-10.9-12.3c-0.9-1.3-1.9-2.5-3.1-3.6
				c5.7-4.8,13.1-7.1,20.5-6.6C135.6,16.7,135.7,16.7,135.8,16.7z M99.2,28.9c2.4-1.7,5.4-2,8.1-0.8c1.6,0.7,3,1.9,4,3.4
				c3,4.6,6.6,8.8,10.7,12.5c-0.4,1.8-0.9,3.7-1.5,5.4c-1.4,4.3,0.8,8.9,5,10.5c4.2,1.5,8.6,2.2,13,2.1c6.7-0.1,13.3-1.4,19.4-4
				c2.5-1,4.8-2.5,6.7-4.3c5.6,4.1,11.9,8.2,18.8,12.4c9.4,5.7,17.2,22.4,13.3,36.2c-3.4,12.1-14.5,18.5-32,18.5
				c-13.1-0.2-25.6-5.8-34.6-15.4c-1.6-1.6-4.2-1.6-5.8,0.1c-1.6,1.6-1.6,4.2-0.1,5.8c6.4,6.6,14.2,11.6,22.9,14.8
				c0.3,9.9,2.8,19.6,7.3,28.4c3.5,6.3,5.4,13.4,5.8,20.6c0,17.8-14,37-44.7,37.5c0.8-1.8,2.1-3.3,3.6-4.6c4.9-3.9,7.8-9.9,7.7-16.2
				c0-2.3-1.9-4.2-4.2-4.2s-4.2,1.9-4.2,4.2c0,3.8-1.7,7.5-4.7,9.8c-4.8,3.9-7.7,9.8-7.7,16v7.6H89.3v-20.8c0-2.3-1.9-4.2-4.2-4.2
				c-1.4,0-2.8,0.8-3.5,2c-6-6.1-9-15-9-27c0.2-9.1,3-17.9,8.1-25.5c4.7-0.5,9.3-1.7,13.7-3.7l-4.9,27c-1.2,6.8,3.3,13.3,10.1,14.6
				c0.7,0.1,1.5,0.2,2.2,0.2c6,0,11.2-4.3,12.3-10.3l6.4-35.2c0.4-2.3-1.1-4.4-3.4-4.8c-2.3-0.4-4.4,1.1-4.8,3.3l-4.5,24.7l-8.2-1.7
				l4.6-25.2c0.2-0.3,0.5-0.5,0.7-0.7c12.2-15.3,6.5-40.3,2.8-56.9c-0.6-2.4-1.1-4.7-1.5-6.6c-3.3-16.6,2-20.5,1.9-20.5
				c1.4-0.7,2.3-2.1,2.3-3.7s-0.9-3-2.3-3.7c-4.5-2.5-8.1-6.1-10.6-10.6c-0.3-0.6-0.6-1.3-0.6-2v-0.2v-0.2
				C96.8,31.5,97.7,29.9,99.2,28.9z M98.2,171.8l8.2,1.7l-0.4,2.2c-0.4,2-2.1,3.4-4.1,3.4c-0.2,0-0.5,0-0.7-0.1
				c-2.3-0.4-3.8-2.6-3.4-4.9L98.2,171.8z M48,116.7c0-3.9,1.9-7.7,5-10c1.7,6.8,6.1,14.2,15.8,14.2c3.6,0.3,7.1-1.2,9.4-4
				c4.5-5.8,1.9-15.7-1.1-27.3c-2.3-7.4-3.7-15.1-4.1-22.9c0-14.1,6.4-24.4,16.8-27.9c0.1,0.2,0.2,0.4,0.3,0.6
				c2.4,4.5,5.7,8.5,9.9,11.5c-2.5,4.2-4.6,11.7-1.9,25c0.4,2,0.9,4.3,1.5,6.8c3.4,15,8.5,37.6-1.2,49.8c-4.9,6.1-13.4,9.2-25.4,9.2
				c-6.7,0.3-13.2-2.3-18-7S47.7,123.4,48,116.7L48,116.7z M17.9,208.9c0,4.3,1.3,8.4,3.7,11.9c2.3,2.8,5.8,4.4,9.4,4.3
				c4.9,0.3,9.7-1.9,12.5-6c3.8-5.6,3.7-14.6-0.3-24.7c-4.6-11.5-5.1-21.7-1.4-27.2c2.3-3.2,6.1-4.9,10-4.6c5,0.6,9.6,3.1,12.8,6.9
				c-0.2,1.9-0.3,3.7-0.4,5.6c0,0.6,0.1,1.1,0.1,1.6c-2.4,1-4.5,2.7-5.9,4.9c-3.7,6-1.5,14.6,1.4,26.4l0.4,1.4
				c1.7,7.9-0.3,16.2-5.4,22.5c-4.7,6.2-12,9.8-19.7,9.8c-5.6,0.2-11-1.9-15-5.8c-4-4-6.1-9.4-5.8-15
				C14.2,216.6,15.4,212.4,17.9,208.9L17.9,208.9z"/>
		</g>
	</g>
</g>
</svg>
